<?xml version="1.0" standalone="no"?><!DOCTYPE svg PUBLIC "-//W3C//DTD SVG 1.1//EN" "http://www.w3.org/Graphics/SVG/1.1/DTD/svg11.dtd"><svg t="1553584146563" class="icon" style="" viewBox="0 0 1024 1024" version="1.1" xmlns="http://www.w3.org/2000/svg" p-id="11609" xmlns:xlink="http://www.w3.org/1999/xlink" width="16" height="16"><defs><style type="text/css"></style></defs><path d="M512 512m-512 0a512 512 0 1 0 1024 0 512 512 0 1 0-1024 0Z" fill="#FEC43C" p-id="11610"></path><path d="M1013.76 408.576C965.632 175.104 759.808 0 512 0 229.376 0 0 229.376 0 512c0 123.904 44.032 236.544 116.736 324.608C203.776 884.736 303.104 911.36 409.6 911.36c301.056 0 550.912-217.088 604.16-502.784z" fill="#FFD73A" p-id="11611"></path><path d="M296.96 583.68m-92.16 0a92.16 92.16 0 1 0 184.32 0 92.16 92.16 0 1 0-184.32 0Z" fill="#873A18" p-id="11612"></path><path d="M727.04 583.68m-92.16 0a92.16 92.16 0 1 0 184.32 0 92.16 92.16 0 1 0-184.32 0Z" fill="#873A18" p-id="11613"></path><path d="M601.088 813.056C522.24 757.76 450.56 794.624 420.864 814.08c-8.192 5.12-18.432 4.096-25.6-3.072-8.192-9.216-6.144-23.552 4.096-30.72 37.888-24.576 128-67.584 225.28 0 10.24 7.168 12.288 20.48 4.096 29.696-6.144 8.192-18.432 9.216-27.648 3.072z" fill="#873A18" p-id="11614"></path><path d="M875.52 487.424c-60.416 16.384-121.856-19.456-138.24-79.872-3.072-11.264 3.072-22.528 14.336-24.576 11.264-3.072 22.528 3.072 24.576 14.336 10.24 37.888 49.152 60.416 88.064 50.176 11.264-3.072 22.528 3.072 24.576 14.336 4.096 11.264-2.048 22.528-13.312 25.6zM148.48 487.424c60.416 16.384 121.856-19.456 138.24-79.872 3.072-11.264-3.072-22.528-14.336-24.576-11.264-3.072-22.528 3.072-24.576 14.336-10.24 37.888-49.152 60.416-88.064 50.176-11.264-3.072-22.528 3.072-24.576 14.336-4.096 11.264 2.048 22.528 13.312 25.6z" fill="#E8AC27" p-id="11615"></path></svg>