<?xml version="1.0" standalone="no"?><!DOCTYPE svg PUBLIC "-//W3C//DTD SVG 1.1//EN" "http://www.w3.org/Graphics/SVG/1.1/DTD/svg11.dtd"><svg t="1559652407617" class="icon" style="" viewBox="0 0 1024 1024" version="1.1" xmlns="http://www.w3.org/2000/svg" p-id="11027" xmlns:xlink="http://www.w3.org/1999/xlink" width="16" height="16"><defs><style type="text/css"></style></defs><path d="M836.693333 786.005333l140.117334 140.117334a35.925333 35.925333 0 1 1-50.773334 50.773333l-140.117333-140.16a219.434667 219.434667 0 1 1 50.816-50.816v0.085333z m-179.669333 17.28a146.304 146.304 0 1 0 0-292.565333 146.304 146.304 0 0 0 0 292.565333zM146.304 256c0-20.181333 16.64-36.565333 36.608-36.565333h365.568a36.522667 36.522667 0 1 1 0 73.130666H182.912A36.522667 36.522667 0 0 1 146.346667 256z m0 146.304a36.693333 36.693333 0 0 1 36.437333-36.608h219.648c20.138667 0 36.48 16.256 36.48 36.608a36.693333 36.693333 0 0 1-36.48 36.565333H182.741333a36.437333 36.437333 0 0 1-36.437333-36.565333zM725.333333 938.666667a42.666667 42.666667 0 0 1 0 85.333333H128a128 128 0 0 1-128-128V128a128 128 0 0 1 128-128h597.333333a128 128 0 0 1 128 128v230.613333a42.666667 42.666667 0 0 1-85.333333 0V128a42.666667 42.666667 0 0 0-42.666667-42.666667H128a42.666667 42.666667 0 0 0-42.666667 42.666667v768a42.666667 42.666667 0 0 0 42.666667 42.666667h597.333333z" p-id="11028" ></path></svg>