<?xml version="1.0" standalone="no"?><!DOCTYPE svg PUBLIC "-//W3C//DTD SVG 1.1//EN" "http://www.w3.org/Graphics/SVG/1.1/DTD/svg11.dtd"><svg t="1560929189798" class="icon" style="" viewBox="0 0 1024 1024" version="1.1" xmlns="http://www.w3.org/2000/svg" p-id="3445" xmlns:xlink="http://www.w3.org/1999/xlink" width="16" height="16"><defs><style type="text/css"></style></defs><path d="M1015.384218 975.227524L851.889974 811.73328c126.205644-140.54749 154.888336-335.592395 88.918045-501.954608-2.867969-11.473877-14.341846-20.078784-25.814723-20.078784-17.209815 0-28.683692 11.472877-28.683692 28.683692 0 2.867969 0 5.735938 2.868969 8.604907 63.102322 157.757305 25.814723 341.329333-94.654983 464.667009C711.342484 871.968633 602.345654 917.86014 487.614887 917.86014c-114.732768 0-223.728597-45.892507-304.041734-126.205644-166.362213-166.362213-166.362213-441.721255 0-608.083468C263.88529 103.259891 372.881119 57.366384 487.614887 57.366384c111.864798 0 215.123689 43.024538 295.436826 117.600736 5.736938 5.736938 11.472877 8.604908 20.077785 8.604908 17.209815 0 28.683692-11.472877 28.683692-28.682692 0-8.604908-2.868969-14.341846-8.604908-20.078784C731.421268 45.893507 608.083593 0 487.613887 0 361.408243 0 238.070568 48.761476 143.415584 143.415459c-189.307966 189.308966-189.307966 499.087639 0 688.396606 94.654983 94.653983 220.860627 143.415459 344.198303 143.415459 114.732768 0 232.333504-43.024538 324.119518-123.337675l163.494244 163.494244c5.736938 5.736938 14.341846 8.604908 20.078784 8.604907s14.340846-2.867969 20.077785-8.604907c11.472877-11.472877 11.472877-28.683692 0-40.156569z" fill="" p-id="3446"></path><path d="M803.128498 479.008854H688.39573h-2.867969c-8.604908 0-17.209815 2.867969-22.946754 8.604908l-22.946753 22.946753-172.098151-149.152397c-2.868969-2.868969-5.736938-2.868969-11.473877-2.868969-11.472877 0-22.946754 2.868969-28.682692 14.341845l-103.258891 120.468706H220.859752c-17.209815 0-28.683692 11.473877-28.683691 28.683692s11.473877 28.683692 28.683691 28.683692H338.461489c11.472877 2.867969 22.946754-2.868969 28.682692-14.341846l91.787014-108.995829L625.293408 570.793868l5.735938 2.86797h20.078785c2.867969 0 5.736938-2.867969 8.604907-2.86797 0 0 2.867969 0 2.867969-2.867969l31.551661-31.551661h108.99583c17.209815 0 28.683692-11.472877 28.683692-28.683692 0-14.340846-11.473877-28.682692-28.683692-28.682692z" fill="" p-id="3447"></path></svg>