<?xml version="1.0" standalone="no"?><!DOCTYPE svg PUBLIC "-//W3C//DTD SVG 1.1//EN" "http://www.w3.org/Graphics/SVG/1.1/DTD/svg11.dtd"><svg t="1561514914324" class="icon" viewBox="0 0 1024 1024" version="1.1" xmlns="http://www.w3.org/2000/svg" p-id="2066" xmlns:xlink="http://www.w3.org/1999/xlink" width="16" height="16"><defs><style type="text/css"></style></defs><path d="M168.019177 1023.251161c-58.606582 0-106.286293-47.67772-106.286293-106.281314V156.950406c0-86.542645 70.407761-156.950406 156.950405-156.950406h557.348055c16.6995 0 30.285146 13.583654 30.285146 30.281163 0 16.6995-13.586642 30.283154-30.285146 30.283154h-557.347059c-26.533982 0-52.184693 11.153912-70.372908 30.600813-18.433181 19.708796-27.589526 45.42025-25.782156 72.396366 3.363799 50.343466 47.174843 89.777986 99.73993 89.777986h553.763189c16.6995 0 30.285146 13.58465 30.285146 30.282158 0 16.698504-13.586642 30.28415-30.285146 30.28415H218.684285c-34.90564 0-68.739803-11.832049-96.385093-33.515508v636.579565c0 25.207582 20.510412 45.716002 45.720981 45.716002h684.013315c25.209573 0 45.719985-20.50842 45.719984-45.716002V232.953545c0-25.210569-20.510412-45.721976-45.719984-45.721977H227.550853c-14.236896 0-25.9375-10.566392-27.821546-25.123935l-0.051782-0.436158c-1.189976-9.086639 1.512614-18.114526 7.406732-24.831171 5.757693-6.560304 13.746965-10.173053 22.496029-10.173053h622.453202c58.605586 0 106.285298 47.679712 106.285297 106.286294v684.016302c0 58.60459-47.680707 106.281314-106.285297 106.281314H168.019177z" fill="" p-id="2067"></path><path d="M213.764057 896.584906v-263.238691h161.898516v263.238691H213.764057z m101.333203-60.564317V693.913519h-40.77287v142.10707h40.77287zM429.077074 896.584906v-389.903951H590.976586v389.903951H429.077074z m101.333204-60.564317V567.241289h-40.768887v268.7793h40.768887zM644.402041 896.584906V380.006733h161.898516v516.578173H644.402041z m101.333204-60.564317V440.573042h-40.771875v395.447547h40.771875z" fill="" p-id="2068"></path></svg>