<?xml version="1.0" standalone="no"?><!DOCTYPE svg PUBLIC "-//W3C//DTD SVG 1.1//EN" "http://www.w3.org/Graphics/SVG/1.1/DTD/svg11.dtd"><svg t="1560580581463" class="icon" style="" viewBox="0 0 1024 1024" version="1.1" xmlns="http://www.w3.org/2000/svg" p-id="923" xmlns:xlink="http://www.w3.org/1999/xlink" width="16" height="16"><defs><style type="text/css"></style></defs><path d="M862.36839936 1018.24363861L162.2381989 1018.24363861c-16.09405099 0-29.1399771-13.04592611-29.13997711-29.1399771l0-954.72194332c0-16.09405099 13.04709006-29.1399771 29.13997711-29.1399771l700.12903651 0c16.09405099 0 29.1399771 13.04709006 29.1399771 29.1399771l0 954.72194332C891.50837646 1005.1977125 878.46245035 1018.24363861 862.36839936 1018.24363861zM191.37817486 959.9625216l641.84908345 0L833.22725831 63.52169643 191.37817486 63.52169643 191.37817486 959.9625216z" p-id="924"></path><path d="M735.07369301 457.78576498L294.03989106 457.78576498c-16.09405099 0-29.1399771-13.04709006-29.13997711-29.13997711s13.04709006-29.1399771 29.13997711-29.1399771l441.03263687 0c16.09405099 0 29.1399771 13.04709006 29.1399771 29.1399771S751.16774286 457.78576498 735.07369301 457.78576498z" p-id="925"></path><path d="M735.07369301 294.2384037L294.03989106 294.2384037c-16.09405099 0-29.1399771-13.04709006-29.13997711-29.13997711s13.04709006-29.1399771 29.13997711-29.1399771l441.03263687 0c16.09405099 0 29.1399771 13.04709006 29.1399771 29.1399771S751.16774286 294.2384037 735.07369301 294.2384037z" p-id="926"></path><path d="M735.07369301 621.33312739L294.03989106 621.33312739c-16.09405099 0-29.1399771-13.04592611-29.13997711-29.1399771s13.04709006-29.1399771 29.13997711-29.1399771l441.03263687 0c16.09405099 0 29.1399771 13.04592611 29.1399771 29.1399771S751.16774286 621.33312739 735.07369301 621.33312739z" p-id="927"></path><path d="M735.07369301 784.88048867L294.03989106 784.88048867c-16.09405099 0-29.1399771-13.04592611-29.13997711-29.1399771s13.04709006-29.1399771 29.13997711-29.1399771l441.03263687 0c16.09405099 0 29.1399771 13.04592611 29.1399771 29.1399771S751.16774286 784.88048867 735.07369301 784.88048867z" p-id="928"></path></svg>