<?xml version="1.0" standalone="no"?><!DOCTYPE svg PUBLIC "-//W3C//DTD SVG 1.1//EN" "http://www.w3.org/Graphics/SVG/1.1/DTD/svg11.dtd"><svg t="1560155458892" class="icon" style="" viewBox="0 0 1024 1024" version="1.1" xmlns="http://www.w3.org/2000/svg" p-id="5584" xmlns:xlink="http://www.w3.org/1999/xlink" width="16" height="16"><defs><style type="text/css"></style></defs><path d="M512 0C229.202781 0 0 229.202781 0 512s229.202781 512 512 512 512-229.202781 512-512S794.748452 0 512 0z m32.088389 832.883894H462.355653v-88.901419h81.732736v88.901419z m118.844081-392.619488a230.958377 230.958377 0 0 1-59.446424 70.370131c-24.773407 19.799219-42.134299 39.500905-51.985141 59.251357-9.948376 19.799219-14.873798 33.35632-14.873798 40.720068v25.943805H469.768168v-37.013811c0-22.237546 5.559387-43.792361 16.726927-64.810744 11.16754-20.969616 30.332794-43.792361 57.593294-68.517002 19.799219-17.263358 33.453853-35.209449 40.866369-53.740737 7.412515-18.482522 11.16754-36.379846 11.167539-53.691971 0-32.039623-7.412515-56.130298-22.286313-72.223259-14.873798-16.044195-35.940947-24.090675-63.152681-24.090675-27.260501 0-50.132013 10.533575-68.712068 31.503191-18.580055 21.018383-27.894466 55.008667-27.894466 101.873321H328.637775c2.438327-69.1022 21.018383-120.40461 55.740166-153.712163 34.62425-33.35632 76.709782-49.985713 126.256596-49.985713 54.423469 0 97.142966 14.825031 128.158491 44.475093 30.917992 29.601295 46.425755 67.931803 46.425755 114.796457 0 32.088389-7.461282 61.738451-22.286313 88.852652z" p-id="5585"></path></svg>